# xmcd CD database file
#
# Track frame offsets:
#	150
#	9310
#	22927
#	38500
#	52827
#	73475
#	87242
#	104597
#	118762
#	132772
#	161787
#
# Disc length: 2368 seconds
#
# Revision: 14
# Processed by: cddbd v1.5.2PL0 Copyright (c) Steve Scherf et al.
# Submitted via: NeoAudio 9.9.9
#
DISCID=89093e0b
DTITLE=Queen - Sheer Heart Attack
DYEAR=1974
DGENRE=Rhythmic Soul
TTITLE0=Track01
TTITLE1=Track02
TTITLE2=Track03
TTITLE3=Track04
TTITLE4=Track05
TTITLE5=Track06
TTITLE6=Track07
TTITLE7=Track08
TTITLE8=Track09
TTITLE9=Track10
TTITLE10=Track11
EXTD=YEAR: 1974
EXTT0=
EXTT1=
EXTT2=
EXTT3=
EXTT4=
EXTT5=
EXTT6=
EXTT7=
EXTT8=
EXTT9=
EXTT10=
PLAYORDER=
